<svg xmlns="http://www.w3.org/2000/svg" viewBox="0 0 1200 1200" width="100%" height="100%">
  <rect width="1200" height="1200" fill="#09090b"/>
  <g fill="#fafafa" transform="translate(142, 510)">
    <!-- a -->
    <path d="M0,180 L0,52 C0,23.27 23.27,0 52,0 L94,0 C122.73,0 146,23.27 146,52 L146,180 L106,180 L106,160.8 C94.27,173.87 75.33,184 49,184 C21.93,184 0,162.07 0,135 C0,107.93 21.93,86 49,86 L106,86 L106,62 C106,47.64 94.36,36 80,36 L52,36 C37.64,36 26,47.64 26,62 L26,76 L0,76 Z M106,120 L52,120 C43.16,120 36,127.16 36,136 C36,144.84 43.16,152 52,152 C71.88,152 106,140.4 106,120 Z"/>
    
    <!-- n -->
    <path d="M178,180 L178,4 L216,4 L216,36.2 C228.4,14.4 250.8,0 278,0 C315.55,0 338,24.45 338,62 L338,180 L298,180 L298,72 C298,49.91 285.09,37 263,37 C240.91,37 218,51 218,78 L218,180 Z"/>

    <!-- hyphen (precision tech connector) -->
    <rect x="358" y="74" width="38" height="32" rx="4"/>

    <!-- n -->
    <path d="M416,180 L416,4 L454,4 L454,36.2 C466.4,14.4 488.8,0 516,0 C553.55,0 576,24.45 576,62 L576,180 L536,180 L536,72 C536,49.91 523.09,37 501,37 C478.91,37 456,51 456,78 L456,180 Z"/>

    <!-- a -->
    <path d="M608,180 L608,52 C608,23.27 631.27,0 660,0 L702,0 C730.73,0 754,23.27 754,52 L754,180 L714,180 L714,160.8 C702.27,173.87 683.33,184 657,184 C629.93,184 608,162.07 608,135 C608,107.93 629.93,86 657,86 L714,86 L714,62 C714,47.64 702.36,36 688,36 L660,36 C645.64,36 634,47.64 634,62 L634,76 L608,76 Z M714,120 L660,120 C651.16,120 644,127.16 644,136 C644,144.84 651.16,152 660,152 C679.88,152 714,140.4 714,120 Z"/>

    <!-- h -->
    <path d="M786,180 L786,-68 L826,-68 L826,35.8 C838.8,14.2 861.4,0 888,0 C926.1,0 948,24.45 948,62 L948,180 L908,180 L908,72 C908,49.91 894.9,37 872,37 C849.1,37 826,51.2 826,78 L826,180 Z"/>

    <!-- l -->
    <path d="M978,180 L978,-68 L1018,-68 L1018,150 C1018,168 1026,176 1042,176 L1050,176 L1050,210 C1038,212 1022,214 1004,208 C988,202 978,194 978,180 Z"/>
  </g>
  <!-- metadata baseline -->
  <text x="600" y="760" fill="#71717a" font-family="-apple-system,BlinkMacSystemFont,'SF Pro Text','Segoe UI',sans-serif" font-size="16" font-weight="600" letter-spacing="9" text-anchor="middle">TECHNOLOGY &amp; INCLUSION</text>
</svg>